<?xml version="1.0" encoding="UTF-8" standalone="no"?>
<svg
   width="32"
   height="32"
   viewBox="0 0 32 32"
   version="1.1"
   id="svg1"
   sodipodi:docname="favicon.svg"
   inkscape:version="1.4.3 (0d15f75042, 2025-12-25)"
   xmlns:inkscape="http://www.inkscape.org/namespaces/inkscape"
   xmlns:sodipodi="http://sodipodi.sourceforge.net/DTD/sodipodi-0.dtd"
   xmlns="http://www.w3.org/2000/svg"
   xmlns:svg="http://www.w3.org/2000/svg">
  <defs
     id="defs1" />
  <sodipodi:namedview
     id="namedview1"
     pagecolor="#ffffff"
     bordercolor="#000000"
     borderopacity="0.25"
     inkscape:showpageshadow="2"
     inkscape:pageopacity="0.0"
     inkscape:pagecheckerboard="0"
     inkscape:deskcolor="#d1d1d1"
     inkscape:zoom="26.375"
     inkscape:cx="16"
     inkscape:cy="16"
     inkscape:window-width="990"
     inkscape:window-height="1077"
     inkscape:window-x="0"
     inkscape:window-y="0"
     inkscape:window-maximized="1"
     inkscape:current-layer="svg1" />
  <path
     d="m 11.899992,22 q -1.16,0 -2.0399996,-0.48 -0.88,-0.5 -1.38,-1.38 -0.48,-0.88 -0.48,-2.04 v -8 h -3.5 V 7.4 H 10.999992 V 18 q 0,0.58 0.32,0.94 0.34,0.36 0.88,0.36 h 3.1 V 22 Z M 22.18,22.2 q -1.46,0 -2.56,-0.54 -1.1,-0.56 -1.7,-1.54 -0.6,-1 -0.6,-2.32 v -2.6 q 0,-1.34 0.6,-2.32 0.6,-0.98 1.7,-1.52 1.1,-0.56 2.56,-0.56 2.18,0 3.48,1.1 1.3,1.1 1.38,3 h -2.92 q -0.06,-0.7 -0.6,-1.1 -0.52,-0.4 -1.34,-0.4 -0.9,0 -1.38,0.46 -0.48,0.46 -0.48,1.34 v 2.6 q 0,0.86 0.48,1.34 0.48,0.46 1.38,0.46 0.82,0 1.34,-0.38 0.54,-0.4 0.6,-1.12 h 2.92 q -0.08,1.9 -1.38,3 -1.3,1.1 -3.48,1.1 z"
     id="text1"
     style="font-weight:800;font-size:20px;font-family:'JetBrainsMono Nerd Font';-inkscape-font-specification:'JetBrainsMono Nerd Font, Ultra-Bold';text-anchor:middle;fill:#d45500"
     aria-label="lc" />
</svg>
