<?xml version="1.0" encoding="UTF-8" standalone="no"?>
<svg
   width="100mm"
   height="20mm"
   viewBox="0 0 100 20"
   version="1.1"
   id="svg1"
   sodipodi:docname="lazycogs-white.svg"
   inkscape:version="1.4.3 (0d15f75042, 2025-12-25)"
   xmlns:inkscape="http://www.inkscape.org/namespaces/inkscape"
   xmlns:sodipodi="http://sodipodi.sourceforge.net/DTD/sodipodi-0.dtd"
   xmlns="http://www.w3.org/2000/svg"
   xmlns:svg="http://www.w3.org/2000/svg">
  <sodipodi:namedview
     id="namedview1"
     pagecolor="#ffffff"
     bordercolor="#000000"
     borderopacity="0.25"
     inkscape:showpageshadow="2"
     inkscape:pageopacity="0.0"
     inkscape:pagecheckerboard="0"
     inkscape:deskcolor="#d1d1d1"
     inkscape:document-units="mm"
     inkscape:zoom="2.3521458"
     inkscape:cx="188.76381"
     inkscape:cy="37.83779"
     inkscape:window-width="990"
     inkscape:window-height="1077"
     inkscape:window-x="0"
     inkscape:window-y="0"
     inkscape:window-maximized="1"
     inkscape:current-layer="svg1" />
  <defs
     id="defs1" />
  <g
     id="layer1">
    <path
       d="m 10.703495,15.466842 q -1.145825,0 -2.0150714,-0.474135 Q 7.8191772,14.498817 7.3252872,13.629571 6.8511528,12.760325 6.8511528,11.6145 V 3.7122597 h -3.45723 v -2.667006 h 6.42057 V 11.515722 q 0,0.572912 0.3160892,0.928513 0.335846,0.355601 0.869247,0.355601 h 3.062118 v 2.667006 z m 8.573938,0.197556 q -1.619959,0 -2.568228,-0.928514 -0.948269,-0.948268 -0.948269,-2.469449 0,-1.639715 1.165581,-2.5879841 1.16558,-0.9482688 3.279429,-0.9482688 h 2.133605 v -0.691446 q 0,-0.6124236 -0.434623,-0.9482688 -0.414868,-0.3556008 -1.205092,-0.3556008 -0.750713,0 -1.205091,0.296334 -0.434624,0.296334 -0.474135,0.8692464 h -2.805295 q 0.05927,-1.6002036 1.264358,-2.5484724 1.205092,-0.9482688 3.259674,-0.9482688 2.153361,0 3.358452,0.98778 1.205092,0.98778 1.205092,2.765784 V 15.466842 H 22.438329 V 13.59006 q -0.197556,0.968024 -1.047047,1.521181 -0.829735,0.553157 -2.113849,0.553157 z m 1.047047,-2.370672 q 0.928513,0 1.461914,-0.454379 0.553157,-0.474134 0.553157,-1.224847 v -1.106314 h -2.074338 q -0.790224,0 -1.224847,0.395112 -0.414868,0.375357 -0.414868,0.98778 0,0.612424 0.434623,1.007536 0.454379,0.395112 1.264359,0.395112 z m 7.66518,2.173116 v -2.568228 l 5.373524,-5.7291243 h -5.175968 v -2.568228 h 8.672709 v 2.568228 l -5.373523,5.7291243 h 5.590834 v 2.568228 z m 13.552351,3.556008 1.48167,-4.08941 -4.089409,-10.3321783 h 3.081873 l 1.758249,4.741344 q 0.197556,0.5334012 0.395112,1.2248473 0.217311,0.691446 0.296334,1.30387 0.07902,-0.612424 0.256822,-1.30387 0.177801,-0.6914461 0.375357,-1.2248473 l 1.639715,-4.741344 h 3.101629 L 44.64364,19.02285 Z m 14.875973,-3.358452 q -1.442158,0 -2.528716,-0.533402 -1.086558,-0.553156 -1.679226,-1.521181 -0.592668,-0.98778 -0.592668,-2.291649 V 8.7499377 q 0,-1.3236252 0.592668,-2.2916496 0.592668,-0.9680244 1.679226,-1.5014256 1.086558,-0.5531568 2.528716,-0.5531568 2.153361,0 3.437475,1.086558 1.284114,1.086558 1.363136,2.96334 h -2.884317 q -0.05927,-0.691446 -0.592668,-1.086558 -0.513646,-0.395112 -1.323626,-0.395112 -0.889002,0 -1.363136,0.4543788 -0.474134,0.4543788 -0.474134,1.3236252 v 2.5682283 q 0,0.849491 0.474134,1.323625 0.474134,0.454379 1.363136,0.454379 0.80998,0 1.323626,-0.375357 0.533401,-0.395112 0.592668,-1.106313 h 2.884317 q -0.07902,1.876782 -1.363136,2.96334 -1.284114,1.086558 -3.437475,1.086558 z m 11.675567,0 q -1.442159,0 -2.508961,-0.533402 -1.066803,-0.553156 -1.659471,-1.521181 -0.572912,-0.98778 -0.572912,-2.291649 V 8.7499377 q 0,-1.3038696 0.572912,-2.271894 0.592668,-0.98778 1.659471,-1.5211812 1.066802,-0.5531568 2.508961,-0.5531568 1.461914,0 2.508961,0.5531568 1.066802,0.5334012 1.639715,1.5211812 0.592668,0.9680244 0.592668,2.271894 v 2.5682283 q 0,1.303869 -0.592668,2.291649 -0.572913,0.968025 -1.639715,1.521181 -1.047047,0.533402 -2.508961,0.533402 z m 0,-2.568228 q 0.869246,0 1.323625,-0.454379 0.454379,-0.474134 0.454379,-1.323625 V 8.7499377 q 0,-0.8692464 -0.454379,-1.3236252 -0.454379,-0.4543788 -1.323625,-0.4543788 -0.849491,0 -1.323625,0.4543788 -0.454379,0.4543788 -0.454379,1.3236252 v 2.5682283 q 0,0.849491 0.454379,1.323625 0.474134,0.454379 1.323625,0.454379 z m 8.791252,5.92668 v -2.370672 h 3.062118 q 0.829736,0 1.264359,-0.414868 0.454379,-0.414868 0.454379,-1.145825 v -0.414867 l 0.01975,-1.619959 q -0.395112,0.869246 -1.126069,1.34338 -0.730957,0.474135 -1.738493,0.474135 -1.639715,0 -2.627495,-1.145825 -0.98778,-1.145825 -0.98778,-3.101629 V 8.6511597 q 0,-1.9360488 0.98778,-3.0818736 0.98778,-1.1655804 2.627495,-1.1655804 1.027291,0 1.758249,0.49389 0.730957,0.4741344 1.126069,1.3433808 V 4.6012617 h 2.864562 V 15.190263 q 0,1.778004 -1.224847,2.805295 -1.205092,1.027292 -3.299186,1.027292 z m 3.002852,-6.716904 q 0.809979,0 1.264358,-0.454379 0.454379,-0.474134 0.454379,-1.323625 V 8.7499377 q 0,-0.8494908 -0.454379,-1.3038696 -0.454379,-0.4741344 -1.264358,-0.4741344 -0.829736,0 -1.284114,0.4741344 -0.434624,0.4543788 -0.434624,1.3038696 v 1.7780043 q 0,0.849491 0.434624,1.323625 0.454378,0.454379 1.284114,0.454379 z m 11.458251,3.358452 q -1.343381,0 -2.350917,-0.414868 -1.007535,-0.434623 -1.580448,-1.185336 -0.553156,-0.750713 -0.553156,-1.758248 h 2.904073 q 0,0.553157 0.414867,0.829735 0.414868,0.276578 1.165581,0.276578 h 0.869246 q 0.80998,0 1.244603,-0.276578 0.454379,-0.276578 0.454379,-0.790224 0,-0.49389 -0.355601,-0.711202 -0.355601,-0.237067 -1.086558,-0.316089 L 89.982769,11.021832 Q 88.540611,10.844031 87.770142,9.9550293 86.999674,9.0462717 86.999674,7.7028909 q 0,-3.2991852 4.227698,-3.2991852 h 0.928513 q 1.995316,0 3.180652,0.8692464 1.185336,0.8692464 1.185336,2.3311608 H 93.6178 q 0,-0.4741344 -0.395112,-0.7309572 -0.375357,-0.2568228 -1.066803,-0.2568228 h -0.928513 q -0.691446,0 -1.047047,0.2568228 -0.3556,0.2568228 -0.3556,0.7112016 0,0.4543788 0.335845,0.6124236 0.355601,0.1580448 0.98778,0.2370672 l 2.370672,0.296334 q 1.600203,0.197556 2.410183,1.1260692 0.80998,0.9285137 0.80998,2.4496947 0,1.600203 -1.145825,2.489205 -1.145825,0.869247 -3.378208,0.869247 z"
       id="text2"
       style="font-weight:800;font-size:19.7556px;font-family:'JetBrainsMono Nerd Font';-inkscape-font-specification:'JetBrainsMono Nerd Font, Ultra-Bold';fill:#ffffff;stroke-width:0.264583"
       aria-label="lazycogs" />
  </g>
</svg>
